<svg xmlns="http://www.w3.org/2000/svg" xmlns:xlink="http://www.w3.org/1999/xlink" width="141" height="141" viewBox="0 0 141 141">
  <defs>
    <clipPath id="clip-path">
      <rect id="Rectángulo_381386" data-name="Rectángulo 381386" width="83.347" height="92.736" fill="#fff"/>
    </clipPath>
  </defs>
  <g id="Grupo_1083570" data-name="Grupo 1083570" transform="translate(-730 -1053)">
    <g id="Grupo_1071996" data-name="Grupo 1071996" transform="translate(461 95)">
      <path id="Trazado_609142" data-name="Trazado 609142" d="M70.5,0A70.5,70.5,0,1,1,0,70.5,70.5,70.5,0,0,1,70.5,0Z" transform="translate(269 958)" fill="#0a5e6b"/>
    </g>
    <g id="Grupo_1083444" data-name="Grupo 1083444" transform="translate(758.326 1076.837)">
      <g id="Grupo_1083443" data-name="Grupo 1083443" clip-path="url(#clip-path)">
        <path id="Trazado_843308" data-name="Trazado 843308" d="M20.008,195.583c-4.691,0-9.382.016-14.073,0-3.737-.016-5.913-2.2-5.922-5.96q-.024-11.366,0-22.733c.009-3.644,2.2-5.864,5.825-5.872q14.163-.03,28.326,0c3.625.008,5.822,2.223,5.831,5.866q.03,11.456,0,22.913a5.4,5.4,0,0,1-5.734,5.782c-4.751.03-9.5.008-14.253.008m0-30.694c-4.451,0-8.9-.015-13.353.007-2.091.01-2.753.633-2.759,2.656q-.033,10.736,0,21.473c.006,2.031.665,2.667,2.746,2.671q13.353.024,26.706,0c2.143,0,2.758-.643,2.764-2.838q.023-10.556,0-21.112c0-2.255-.62-2.845-2.931-2.853-4.391-.015-8.782,0-13.173,0" transform="translate(0 -102.854)" fill="#fff"/>
        <path id="Trazado_843309" data-name="Trazado 843309" d="M140.112,161.01c4.571,0,9.141-.009,13.712,0,4.014.009,6.164,2.117,6.171,6.075q.021,11.277,0,22.552c-.009,3.747-2.194,5.936-5.94,5.942q-14.072.024-28.145,0c-3.653-.007-5.885-2.2-5.9-5.8q-.035-11.456,0-22.913c.01-3.632,2.216-5.832,5.847-5.85,4.751-.023,9.5-.006,14.253-.006m-.293,30.7c4.391,0,8.782.007,13.173,0,2.551-.006,3.119-.549,3.123-3.028q.016-10.376,0-20.752c0-2.437-.568-3.025-2.938-3.028q-13.173-.017-26.346,0c-2.373,0-2.938.59-2.942,3.024q-.016,10.376,0,20.752c0,2.483.568,3.026,3.118,3.031,4.271.01,8.541,0,12.812,0" transform="translate(-76.66 -102.857)" fill="#fff"/>
        <path id="Trazado_843310" data-name="Trazado 843310" d="M26.58.007c3.486,0,6.972-.021,10.457.007,3.428.027,5.77,2.317,5.76,5.57s-2.364,5.507-5.813,5.518q-10.547.033-21.1,0c-3.467-.01-5.826-2.252-5.849-5.482-.024-3.328,2.338-5.589,5.9-5.609,3.546-.02,7.092,0,10.638,0M26.486,3.89q-4.955,0-9.91,0c-1.219,0-2.506.2-2.487,1.688s1.319,1.648,2.531,1.648q9.82,0,19.641,0c1.218,0,2.506-.2,2.486-1.689s-1.317-1.647-2.53-1.647q-4.865,0-9.73,0" transform="translate(-6.414 0)" fill="#fff"/>
        <path id="Trazado_843311" data-name="Trazado 843311" d="M26.415,51.1c-3.546,0-7.092.022-10.637-.007a5.544,5.544,0,1,1-.084-11.083q10.728-.044,21.456,0a5.544,5.544,0,1,1-.1,11.083c-3.545.029-7.092.007-10.638.007m.01-3.88v-.01c3.423,0,6.847.013,10.27-.008,1.056-.006,2.02-.417,2.066-1.571.051-1.28-.954-1.673-2.079-1.74-.3-.018-.6-.012-.9-.012q-9.37,0-18.74,0a4.427,4.427,0,0,0-1.95.226,1.591,1.591,0,0,0-1.042,1.358,1.434,1.434,0,0,0,1.061,1.506,6.09,6.09,0,0,0,1.763.237c3.183.022,6.367.01,9.55.01" transform="translate(-6.414 -25.547)" fill="#fff"/>
        <path id="Trazado_843312" data-name="Trazado 843312" d="M146.6,80.008c3.486,0,6.972-.022,10.457.007a5.544,5.544,0,1,1,.086,11.083q-10.728.046-21.456,0a5.544,5.544,0,1,1,.094-11.083c3.606-.029,7.212-.007,10.818-.007m-.285,7.219h9.911c1.212,0,2.509-.174,2.521-1.656s-1.277-1.68-2.5-1.681H136.611c-1.214,0-2.51.175-2.522,1.656s1.279,1.68,2.5,1.68q4.865,0,9.73,0" transform="translate(-83.076 -51.108)" fill="#fff"/>
        <path id="Trazado_843313" data-name="Trazado 843313" d="M26.231,131.1c-3.486,0-6.972.022-10.457-.007a5.544,5.544,0,1,1-.078-11.083q10.728-.044,21.456,0a5.4,5.4,0,0,1,5.645,5.5c.014,3.258-2.325,5.533-5.748,5.59-.12,0-.24,0-.36,0H26.231m.184-7.22v.01c-3.424,0-6.847-.012-10.271.007-1.056.006-2.021.415-2.07,1.567-.055,1.279.949,1.676,2.075,1.744.3.018.6.012.9.012q9.37,0,18.74,0a3.985,3.985,0,0,0,2.112-.307,1.487,1.487,0,0,0,0-2.726,3.67,3.67,0,0,0-1.932-.3q-4.775,0-9.55,0" transform="translate(-6.413 -76.655)" fill="#fff"/>
        <path id="Trazado_843314" data-name="Trazado 843314" d="M146.445,120.007c3.546,0,7.092-.024,10.638.006a5.544,5.544,0,1,1,.036,11.083q-10.728.043-21.456,0a5.54,5.54,0,1,1-.036-11.079c3.606-.039,7.212-.009,10.818-.009m-.183,7.216h10.091c1.164,0,2.363-.244,2.4-1.6.038-1.495-1.218-1.731-2.444-1.731q-9.911,0-19.821,0c-1.165,0-2.363.244-2.4,1.6-.038,1.494,1.219,1.73,2.445,1.732q4.865.007,9.73,0" transform="translate(-83.076 -76.66)" fill="#fff"/>
        <path id="Trazado_843315" data-name="Trazado 843315" d="M26.415,80c3.549,0,7.1-.025,10.646,0a5.547,5.547,0,1,1,.065,11.09q-1.263.023-2.526-.013a1.826,1.826,0,0,1-2-1.873c-.021-1.289.795-1.946,2.082-1.978.661-.017,1.324,0,1.985-.026,1.126-.051,2.136-.445,2.1-1.725-.035-1.158-1-1.565-2.055-1.584-1.683-.03-3.368-.017-5.052-.018q-7.218,0-14.435,0A8.558,8.558,0,0,0,15.426,84a1.577,1.577,0,0,0-1.373,1.476,1.551,1.551,0,0,0,1.4,1.627,11.686,11.686,0,0,0,2.334.114c1.394-.02,2.462.471,2.443,1.99-.018,1.4-1.029,1.921-2.354,1.895-.842-.017-1.685.021-2.526-.011a5.539,5.539,0,0,1,.056-11.071c3.668-.06,7.337-.014,11.006-.016" transform="translate(-6.413 -51.101)" fill="#fff"/>
        <path id="Trazado_843316" data-name="Trazado 843316" d="M45.848,186.475A5.734,5.734,0,0,1,44.11,190.7c-2.887,2.9-5.75,5.818-8.683,8.667a5.457,5.457,0,0,1-7.935.155c-1.69-1.534-3.313-3.155-4.843-4.848A5.493,5.493,0,0,1,22.629,187a5.385,5.385,0,0,1,7.633-.483c1.119.917,1.662.629,2.473-.251a51.507,51.507,0,0,1,3.845-3.805,5.215,5.215,0,0,1,6.047-.834,5.462,5.462,0,0,1,3.221,4.85m-4.182.347a1.378,1.378,0,0,0-.837-1.455,1.7,1.7,0,0,0-1.973.448q-1.981,1.966-3.956,3.937c-3.254,3.251-3.258,3.257-6.643.3-.785-.687-1.622-1.208-2.524-.329s-.5,1.76.246,2.52c1.3,1.331,2.627,2.636,3.942,3.952,1.066,1.067,2.079.968,3.115-.078,2.576-2.6,5.175-5.181,7.761-7.773a2.189,2.189,0,0,0,.869-1.52" transform="translate(-13.464 -115.645)" fill="#fff"/>
        <path id="Trazado_843317" data-name="Trazado 843317" d="M161.6,200.631a5.273,5.273,0,0,1-3.719-1.452c-1.023-1.055-1.735-.978-2.823-.012a5.377,5.377,0,0,1-6.681.575A5.693,5.693,0,0,1,145.9,193.8a4.728,4.728,0,0,1,1.407-2.674c1.008-.89.889-1.493.017-2.487a5.6,5.6,0,0,1,3.067-9.39,5.374,5.374,0,0,1,4.959,1.567c.83.805,1.384.76,2.26.012,2.654-2.266,5.774-2.218,7.944-.015a5.6,5.6,0,0,1-.037,7.956c-.917,1.005-.623,1.521.131,2.353a5.66,5.66,0,0,1-4.041,9.513m1.547-5.655a2.069,2.069,0,0,0-.663-1.249c-.627-.649-1.288-1.266-1.892-1.936-1.3-1.439-1.307-2.356-.034-3.78.641-.717,1.351-1.371,2.013-2.07a1.423,1.423,0,0,0,.2-2.094,1.481,1.481,0,0,0-2.247-.119c-.743.606-1.383,1.337-2.087,1.992-1.5,1.4-2.346,1.405-3.887.023-.716-.642-1.355-1.373-2.093-1.987a1.5,1.5,0,0,0-2.255.052,1.4,1.4,0,0,0,.134,2.092c.657.7,1.368,1.357,2.012,2.072,1.3,1.437,1.3,2.357.036,3.781-.559.628-1.176,1.206-1.769,1.8-.746.75-1.267,1.595-.319,2.482.9.842,1.773.385,2.536-.346.652-.624,1.291-1.262,1.949-1.878a2.239,2.239,0,0,1,3.489.065c.774.757,1.54,1.524,2.355,2.234a1.488,1.488,0,0,0,1.7.178,1.528,1.528,0,0,0,.821-1.316" transform="translate(-93.131 -114.44)" fill="#fff"/>
      </g>
    </g>
  </g>
</svg>
