<svg xmlns="http://www.w3.org/2000/svg" xmlns:xlink="http://www.w3.org/1999/xlink" width="141" height="141" viewBox="0 0 141 141">
  <defs>
    <clipPath id="clip-path">
      <rect id="Rectángulo_381387" data-name="Rectángulo 381387" width="77.525" height="77.518" fill="#fff" stroke="#fff" stroke-width="1"/>
    </clipPath>
  </defs>
  <g id="Grupo_1083571" data-name="Grupo 1083571" transform="translate(-1150 -1053)">
    <g id="Grupo_1071997" data-name="Grupo 1071997" transform="translate(881 95)">
      <path id="Trazado_609142" data-name="Trazado 609142" d="M70.5,0A70.5,70.5,0,1,1,0,70.5,70.5,70.5,0,0,1,70.5,0Z" transform="translate(269 958)" fill="#0a5e6b"/>
    </g>
    <g id="Grupo_1083446" data-name="Grupo 1083446" transform="translate(1181.737 1084.741)">
      <g id="Grupo_1083445" data-name="Grupo 1083445" clip-path="url(#clip-path)">
        <path id="Trazado_843318" data-name="Trazado 843318" d="M39.3,37.88c.364-.977.735-1.953,1.092-2.932.973-2.667,2.488-3.717,5.293-3.781,2.55-.058,5.115.258,7.649-.207a4.942,4.942,0,0,0,4.352-5.116q.058-8.719,0-17.439a5.044,5.044,0,0,0-5.307-5.3c-3.107-.035-6.213-.008-9.321-.015a7.556,7.556,0,0,1-1.347-.073,1.239,1.239,0,0,1-1.165-1.332c.037-.8.568-1.133,1.308-1.157.851-.026,1.7-.02,2.555-.02,2.656,0,5.312.027,7.968-.008a7.364,7.364,0,0,1,5.776,2.41,2.905,2.905,0,0,0,2.38.983q4.811-.056,9.622-.007c4.771.04,7.537,2.843,7.545,7.607q0,2.255-.008,4.51c0,.785-.278,1.44-1.148,1.481-.927.043-1.362-.6-1.391-1.443-.055-1.652-.019-3.307-.045-4.96C75.069,8.3,73.52,6.7,70.742,6.653c-3.006-.047-6.014.011-9.02-.029-1.111-.015-1.363.331-1.346,1.5.088,6.208.406,12.432-.162,18.621-.17,1.858-.8,3.4,1.594,4.208.766.257,1.14,1.22,1.429,2.044.264.752.549,1.5.96,2.61.377-.972.641-1.629.887-2.292a4.755,4.755,0,0,1,4.974-3.55,5.256,5.256,0,0,0,3.047-.6,4.163,4.163,0,0,0,2-3.5c.015-1.3-.014-2.607.052-3.907.041-.825.424-1.493,1.387-1.426.875.06,1.149.7,1.148,1.483,0,1.553.085,3.114-.039,4.659-.267,3.315-3.131,5.886-6.975,5.967-2.042.043-3.033.847-3.51,2.7a10.751,10.751,0,0,1-.984,2.511,2.176,2.176,0,0,1-3.967-.033,17.751,17.751,0,0,1-.993-2.511c-.9-2.514-2.136-3.433-4.538-2.422-3.173,1.337-6.387,1.012-9.616,1.064-3.383.054-3.5.1-4.648,3.269-.289.8-.565,1.607-.877,2.4a2.52,2.52,0,0,1-2.419,1.9,2.481,2.481,0,0,1-2.451-1.854c-.49-1.26-.945-2.534-1.4-3.806a2.617,2.617,0,0,0-2.737-1.9c-2.1.026-4.209,0-6.314,0a8.377,8.377,0,0,1-3.787-.8,5.869,5.869,0,0,0-2.18-.456,2.609,2.609,0,0,0-3.113,2.131,22.636,22.636,0,0,1-.99,2.675,2.27,2.27,0,0,1-4.324-.006c-.38-.926-.755-1.86-1.043-2.817a2.506,2.506,0,0,0-2.761-1.993,7.269,7.269,0,0,1-5.7-2.234A6.532,6.532,0,0,1,.5,25.629c.013-4.761,0-9.522,0-14.283.007-4.556,2.8-7.4,7.391-7.455,3.257-.041,6.515-.033,9.772,0a2.935,2.935,0,0,0,2.382-.98A7.464,7.464,0,0,1,25.827.5c3.307.036,6.615.008,9.922.01.877,0,1.859-.008,1.89,1.178.033,1.225-.935,1.394-1.9,1.4-3.257.013-6.515-.011-9.772.017-3.366.028-5.438,2.075-5.459,5.452-.034,5.512-.02,11.025-.01,16.537.007,3.962,1.994,5.979,6.006,6.069,2.053.046,4.109,0,6.164.016a4.9,4.9,0,0,1,5.038,3.5c.413,1.065.8,2.139,1.2,3.209l.391,0M13.967,35.51c.892-1.791.9-3.906,2.5-4.564,2.3-.946,1.72-2.281,1.543-4.112-.6-6.185-.27-12.409-.173-18.615.022-1.39-.38-1.617-1.55-1.6-2.855.045-5.711-.007-8.566.023q-4.607.049-4.623,4.636c-.019,4.408-.009,8.817-.005,13.226,0,3.8,1.262,5.091,5.1,5.26,2.73.121,4.042,1.1,5.007,3.727.221.6.459,1.2.773,2.018" transform="translate(-0.35 -0.35)" fill="#fff" stroke="#fff" stroke-width="1"/>
        <path id="Trazado_843319" data-name="Trazado 843319" d="M39.3,37.88c.364-.977.735-1.953,1.092-2.932.973-2.667,2.488-3.717,5.293-3.781,2.55-.058,5.115.258,7.649-.207a4.942,4.942,0,0,0,4.352-5.116q.058-8.719,0-17.439a5.044,5.044,0,0,0-5.307-5.3c-3.107-.035-6.213-.008-9.321-.015a7.556,7.556,0,0,1-1.347-.073,1.239,1.239,0,0,1-1.165-1.332c.037-.8.568-1.133,1.308-1.157.851-.026,1.7-.02,2.555-.02,2.656,0,5.312.027,7.968-.008a7.364,7.364,0,0,1,5.776,2.41,2.905,2.905,0,0,0,2.38.983q4.811-.056,9.622-.007c4.771.04,7.537,2.843,7.545,7.607q0,2.255-.008,4.51c0,.785-.278,1.44-1.148,1.481-.927.043-1.362-.6-1.391-1.443-.055-1.652-.019-3.307-.045-4.96C75.069,8.3,73.52,6.7,70.742,6.653c-3.006-.047-6.014.011-9.02-.029-1.111-.015-1.363.331-1.346,1.5.088,6.208.406,12.432-.162,18.621-.17,1.858-.8,3.4,1.594,4.208.766.257,1.14,1.22,1.429,2.044.264.752.549,1.5.96,2.61.377-.972.641-1.629.887-2.292a4.755,4.755,0,0,1,4.974-3.55,5.256,5.256,0,0,0,3.047-.6,4.163,4.163,0,0,0,2-3.5c.015-1.3-.014-2.607.052-3.907.041-.825.424-1.493,1.387-1.426.875.06,1.149.7,1.148,1.483,0,1.553.085,3.114-.039,4.659-.267,3.315-3.131,5.886-6.975,5.967-2.042.043-3.033.847-3.51,2.7a10.751,10.751,0,0,1-.984,2.511,2.176,2.176,0,0,1-3.967-.033,17.751,17.751,0,0,1-.993-2.511c-.9-2.514-2.136-3.433-4.538-2.422-3.173,1.337-6.387,1.012-9.616,1.064-3.383.054-3.5.1-4.648,3.269-.289.8-.565,1.607-.877,2.4a2.52,2.52,0,0,1-2.419,1.9,2.481,2.481,0,0,1-2.451-1.854c-.49-1.26-.945-2.534-1.4-3.806a2.617,2.617,0,0,0-2.737-1.9c-2.1.026-4.209,0-6.314,0a8.377,8.377,0,0,1-3.787-.8,5.869,5.869,0,0,0-2.18-.456,2.609,2.609,0,0,0-3.113,2.131,22.636,22.636,0,0,1-.99,2.675,2.27,2.27,0,0,1-4.324-.006c-.38-.926-.755-1.86-1.043-2.817a2.506,2.506,0,0,0-2.761-1.993,7.269,7.269,0,0,1-5.7-2.234A6.532,6.532,0,0,1,.5,25.629c.013-4.761,0-9.522,0-14.283.007-4.556,2.8-7.4,7.391-7.455,3.257-.041,6.515-.033,9.772,0a2.935,2.935,0,0,0,2.382-.98A7.464,7.464,0,0,1,25.827.5c3.307.036,6.615.008,9.922.01.877,0,1.859-.008,1.89,1.178.033,1.225-.935,1.394-1.9,1.4-3.257.013-6.515-.011-9.772.017-3.366.028-5.438,2.075-5.459,5.452-.034,5.512-.02,11.025-.01,16.537.007,3.962,1.994,5.979,6.006,6.069,2.053.046,4.109,0,6.164.016a4.9,4.9,0,0,1,5.038,3.5c.413,1.065.8,2.139,1.2,3.209ZM13.967,35.51c.892-1.791.9-3.906,2.5-4.564,2.3-.946,1.72-2.281,1.543-4.112-.6-6.185-.27-12.409-.173-18.615.022-1.39-.38-1.617-1.55-1.6-2.855.045-5.711-.007-8.566.023q-4.607.049-4.623,4.636c-.019,4.408-.009,8.817-.005,13.226,0,3.8,1.262,5.091,5.1,5.26,2.73.121,4.042,1.1,5.007,3.727C13.415,34.095,13.652,34.691,13.967,35.51Z" transform="translate(-0.35 -0.35)" fill="#fff" stroke="#fff" stroke-miterlimit="10" stroke-width="1"/>
        <path id="Trazado_843320" data-name="Trazado 843320" d="M76.986,174.886c-2.255,0-4.51.02-6.764-.008a1.711,1.711,0,0,0-1.812.988,3.188,3.188,0,0,1-3.078,1.771q-9.4-.016-18.79,0a3.178,3.178,0,0,1-3.1-1.73,1.813,1.813,0,0,0-1.94-1.032q-6.464.032-12.927.005c-2.891-.008-4.011-1.127-4.024-3.993-.009-1.954-.037-3.909.009-5.862a7.345,7.345,0,0,1,4.281-6.884c1.112-.542,1.153-.914.588-1.947a6.986,6.986,0,1,1,12.666-5.814,6.59,6.59,0,0,1-.543,6.061c-.478.77-.513,1.206.454,1.544a5.053,5.053,0,0,1,2.2,1.536c.619.741,1.079.614,1.7-.005a6.818,6.818,0,0,1,2.931-1.778c1.124-.32.993-.667.409-1.5a8.149,8.149,0,1,1,13.686-8.827,7.743,7.743,0,0,1-.406,8.9c-.574.818-.606,1.168.419,1.392a5.943,5.943,0,0,1,.961.42c1.081.453,1.815,1.769,2.825,1.853,1.038.086,1.645-1.5,2.77-1.84,1.33-.4,1.15-1.012.6-2.052A6.985,6.985,0,0,1,77.058,145.9a6.954,6.954,0,0,1,5.288,10.381c-.563,1.031-.422,1.335.591,1.832a7.422,7.422,0,0,1,4.329,7.011c.033,2,.023,4.009,0,6.013-.025,2.556-1.212,3.719-3.819,3.743-2.155.02-4.309,0-6.464.005m-21.168.163h8.56c.1,0,.2-.006.3,0,1.013.041,1.644-.339,1.639-1.453-.01-2.453.111-4.914-.045-7.357-.266-4.162-2.769-6.393-6.966-6.414-2.4-.012-4.806-.023-7.209.006a6.041,6.041,0,0,0-6.406,5.488c-.456,2.828-.158,5.694-.157,8.543,0,1.084.859,1.194,1.723,1.191q4.28-.01,8.56,0M76.733,172.3c2.15,0,4.3-.025,6.45.011,1.089.018,1.532-.432,1.506-1.523-.045-1.9.023-3.8-.023-5.7a5.128,5.128,0,0,0-5.132-5.185c-2.149-.056-4.3-.024-6.45-.006a5.182,5.182,0,0,0-3.67,1.463c-.542.522-1.169,1.147-.955,1.933.7,2.566.39,5.172.435,7.761.018,1.016.471,1.276,1.388,1.261,2.149-.037,4.3-.012,6.45-.014m-41.65,0c2.1,0,4.2-.055,6.3.021,1.194.043,1.555-.4,1.556-1.563,0-2.192-.336-4.425.275-6.568a2.75,2.75,0,0,0-1.146-3.124,5.09,5.09,0,0,0-3.327-1.174c-2.15-.016-4.3-.049-6.449.006a5.125,5.125,0,0,0-5.133,5.181c-.047,1.9.022,3.8-.024,5.7-.026,1.086.407,1.546,1.5,1.528,2.149-.036,4.3-.011,6.449-.008M55.8,157.045a5.5,5.5,0,0,0,5.7-5.524,5.594,5.594,0,0,0-11.184-.067,5.506,5.506,0,0,0,5.483,5.591m-15.9-4.154a4.326,4.326,0,0,0-4.324-4.432,4.408,4.408,0,1,0-.048,8.816,4.326,4.326,0,0,0,4.372-4.383m36.276-4.432a4.408,4.408,0,0,0,.172,8.814,4.408,4.408,0,1,0-.172-8.814" transform="translate(-17.157 -100.272)" fill="#fff" stroke="#fff" stroke-width="1"/>
        <path id="Trazado_843321" data-name="Trazado 843321" d="M76.986,174.886c-2.255,0-4.51.02-6.764-.008a1.711,1.711,0,0,0-1.812.988,3.188,3.188,0,0,1-3.078,1.771q-9.4-.016-18.79,0a3.178,3.178,0,0,1-3.1-1.73,1.813,1.813,0,0,0-1.94-1.032q-6.464.032-12.927.005c-2.891-.008-4.011-1.127-4.024-3.993-.009-1.954-.037-3.909.009-5.862a7.345,7.345,0,0,1,4.281-6.884c1.112-.542,1.153-.914.588-1.947a6.986,6.986,0,1,1,12.666-5.814,6.59,6.59,0,0,1-.543,6.061c-.478.77-.513,1.206.454,1.544a5.053,5.053,0,0,1,2.2,1.536c.619.741,1.079.614,1.7-.005a6.818,6.818,0,0,1,2.931-1.778c1.124-.32.993-.667.409-1.5a8.149,8.149,0,1,1,13.686-8.827,7.743,7.743,0,0,1-.406,8.9c-.574.818-.606,1.168.419,1.392a5.943,5.943,0,0,1,.961.42c1.081.453,1.815,1.769,2.825,1.853,1.038.086,1.645-1.5,2.77-1.84,1.33-.4,1.15-1.012.6-2.052A6.985,6.985,0,0,1,77.058,145.9a6.954,6.954,0,0,1,5.288,10.381c-.563,1.031-.422,1.335.591,1.832a7.422,7.422,0,0,1,4.329,7.011c.033,2,.023,4.009,0,6.013-.025,2.556-1.212,3.719-3.819,3.743C81.3,174.9,79.141,174.885,76.986,174.886Zm-21.168.163h8.56c.1,0,.2-.006.3,0,1.013.041,1.644-.339,1.639-1.453-.01-2.453.111-4.914-.045-7.357-.266-4.162-2.769-6.393-6.966-6.414-2.4-.012-4.806-.023-7.209.006a6.041,6.041,0,0,0-6.406,5.488c-.456,2.828-.158,5.694-.157,8.543,0,1.084.859,1.194,1.723,1.191Q51.538,175.039,55.818,175.049ZM76.733,172.3c2.15,0,4.3-.025,6.45.011,1.089.018,1.532-.432,1.506-1.523-.045-1.9.023-3.8-.023-5.7a5.128,5.128,0,0,0-5.132-5.185c-2.149-.056-4.3-.024-6.45-.006a5.182,5.182,0,0,0-3.67,1.463c-.542.522-1.169,1.147-.955,1.933.7,2.566.39,5.172.435,7.761.018,1.016.471,1.276,1.388,1.261C72.432,172.273,74.583,172.3,76.733,172.3Zm-41.65,0c2.1,0,4.2-.055,6.3.021,1.194.043,1.555-.4,1.556-1.563,0-2.192-.336-4.425.275-6.568a2.75,2.75,0,0,0-1.146-3.124,5.09,5.09,0,0,0-3.327-1.174c-2.15-.016-4.3-.049-6.449.006a5.125,5.125,0,0,0-5.133,5.181c-.047,1.9.022,3.8-.024,5.7-.026,1.086.407,1.546,1.5,1.528C30.783,172.271,32.933,172.3,35.083,172.3ZM55.8,157.045a5.5,5.5,0,0,0,5.7-5.524,5.594,5.594,0,0,0-11.184-.067A5.506,5.506,0,0,0,55.8,157.045Zm-15.9-4.154a4.326,4.326,0,0,0-4.324-4.432,4.408,4.408,0,1,0-.048,8.816A4.326,4.326,0,0,0,39.9,152.891Zm36.276-4.432a4.408,4.408,0,0,0,.172,8.814,4.408,4.408,0,1,0-.172-8.814Z" transform="translate(-17.157 -100.272)" fill="#fff" stroke="#fff" stroke-miterlimit="10" stroke-width="1"/>
        <path id="Trazado_843322" data-name="Trazado 843322" d="M119.606,46.547a3.932,3.932,0,0,1,4,3.8,3.977,3.977,0,1,1-7.952.048,3.93,3.93,0,0,1,3.952-3.853" transform="translate(-80.876 -32.55)" fill="#fff" stroke="#fff" stroke-width="1"/>
        <path id="Trazado_843323" data-name="Trazado 843323" d="M119.606,46.547a3.932,3.932,0,0,1,4,3.8,3.977,3.977,0,1,1-7.952.048A3.93,3.93,0,0,1,119.606,46.547Z" transform="translate(-80.876 -32.55)" fill="#fff" stroke="#fff" stroke-miterlimit="10" stroke-width="1"/>
        <path id="Trazado_843324" data-name="Trazado 843324" d="M149.614,50.507a3.911,3.911,0,0,1,3.991-3.961,3.953,3.953,0,0,1,3.963,3.856,4.128,4.128,0,0,1-4.023,4.027,4,4,0,0,1-3.93-3.922" transform="translate(-104.624 -32.549)" fill="#fff" stroke="#fff" stroke-width="1"/>
        <path id="Trazado_843325" data-name="Trazado 843325" d="M149.614,50.507a3.911,3.911,0,0,1,3.991-3.961,3.953,3.953,0,0,1,3.963,3.856,4.128,4.128,0,0,1-4.023,4.027A4,4,0,0,1,149.614,50.507Z" transform="translate(-104.624 -32.549)" fill="#fff" stroke="#fff" stroke-miterlimit="10" stroke-width="1"/>
        <path id="Trazado_843326" data-name="Trazado 843326" d="M89.649,50.406a4.039,4.039,0,0,1-3.993,4.022A4.137,4.137,0,0,1,81.7,50.492a3.977,3.977,0,0,1,7.952-.086" transform="translate(-57.13 -32.548)" fill="#fff" stroke="#fff" stroke-width="1"/>
        <path id="Trazado_843327" data-name="Trazado 843327" d="M89.649,50.406a4.039,4.039,0,0,1-3.993,4.022A4.137,4.137,0,0,1,81.7,50.492a3.977,3.977,0,0,1,7.952-.086Z" transform="translate(-57.13 -32.548)" fill="#fff" stroke="#fff" stroke-miterlimit="10" stroke-width="1"/>
      </g>
    </g>
  </g>
</svg>
