<svg xmlns="http://www.w3.org/2000/svg" xmlns:xlink="http://www.w3.org/1999/xlink" width="363" height="451" viewBox="0 0 363 451">
  <defs>
    <clipPath id="clip-path">
      <rect id="Rectángulo_381462" data-name="Rectángulo 381462" width="312.981" height="326.033" fill="none"/>
    </clipPath>
    <clipPath id="clip-path-3">
      <rect id="Rectángulo_381394" data-name="Rectángulo 381394" width="298.228" height="220.527" fill="none"/>
    </clipPath>
    <clipPath id="clip-path-4">
      <rect id="Rectángulo_381396" data-name="Rectángulo 381396" width="27.359" height="31.305" fill="none"/>
    </clipPath>
    <clipPath id="clip-path-5">
      <rect id="Rectángulo_381401" data-name="Rectángulo 381401" width="33.893" height="41.382" fill="none"/>
    </clipPath>
    <clipPath id="clip-path-6">
      <rect id="Rectángulo_381403" data-name="Rectángulo 381403" width="9.537" height="9.791" fill="none"/>
    </clipPath>
    <clipPath id="clip-path-7">
      <rect id="Rectángulo_381404" data-name="Rectángulo 381404" width="29.304" height="31.759" fill="none"/>
    </clipPath>
    <clipPath id="clip-path-8">
      <rect id="Rectángulo_381408" data-name="Rectángulo 381408" width="16.713" height="16.946" fill="none"/>
    </clipPath>
    <clipPath id="clip-path-9">
      <rect id="Rectángulo_381410" data-name="Rectángulo 381410" width="26.932" height="24.892" fill="none"/>
    </clipPath>
    <clipPath id="clip-path-10">
      <rect id="Rectángulo_381413" data-name="Rectángulo 381413" width="34.819" height="38.566" fill="none"/>
    </clipPath>
    <clipPath id="clip-path-11">
      <rect id="Rectángulo_381417" data-name="Rectángulo 381417" width="9.537" height="9.792" fill="none"/>
    </clipPath>
    <clipPath id="clip-path-12">
      <rect id="Rectángulo_381418" data-name="Rectángulo 381418" width="29.959" height="28.511" fill="none"/>
    </clipPath>
    <clipPath id="clip-path-13">
      <rect id="Rectángulo_381419" data-name="Rectángulo 381419" width="19.716" height="18.675" fill="none"/>
    </clipPath>
    <clipPath id="clip-path-14">
      <rect id="Rectángulo_381420" data-name="Rectángulo 381420" width="21.729" height="20.494" fill="none"/>
    </clipPath>
    <clipPath id="clip-path-15">
      <rect id="Rectángulo_381422" data-name="Rectángulo 381422" width="6.768" height="6.771" fill="none"/>
    </clipPath>
    <clipPath id="clip-path-16">
      <rect id="Rectángulo_381424" data-name="Rectángulo 381424" width="45.246" height="48.352" fill="none"/>
    </clipPath>
    <clipPath id="clip-path-17">
      <rect id="Rectángulo_381425" data-name="Rectángulo 381425" width="23.772" height="25.764" fill="none"/>
    </clipPath>
    <clipPath id="clip-path-18">
      <rect id="Rectángulo_381427" data-name="Rectángulo 381427" width="32.41" height="30.493" fill="none"/>
    </clipPath>
    <clipPath id="clip-path-19">
      <rect id="Rectángulo_381428" data-name="Rectángulo 381428" width="8.631" height="8.862" fill="none"/>
    </clipPath>
    <clipPath id="clip-path-20">
      <rect id="Rectángulo_381430" data-name="Rectángulo 381430" width="201.918" height="120.042" fill="none"/>
    </clipPath>
    <clipPath id="clip-path-21">
      <rect id="Rectángulo_381429" data-name="Rectángulo 381429" width="17.525" height="6.538" fill="none"/>
    </clipPath>
    <clipPath id="clip-path-22">
      <rect id="Rectángulo_381431" data-name="Rectángulo 381431" width="16.18" height="21.005" fill="none"/>
    </clipPath>
    <clipPath id="clip-path-23">
      <path id="Trazado_843377" data-name="Trazado 843377" d="M56.067,267.673a6.561,6.561,0,0,0-6.561,6.561h59.445c0-3.623-11.541-6.561-15.165-6.561Z" transform="translate(-49.506 -267.673)" fill="none"/>
    </clipPath>
    <clipPath id="clip-path-24">
      <rect id="Rectángulo_381439" data-name="Rectángulo 381439" width="12.133" height="10.649" fill="none"/>
    </clipPath>
    <clipPath id="clip-path-26">
      <rect id="Rectángulo_381440" data-name="Rectángulo 381440" width="23.846" height="23.913" fill="none"/>
    </clipPath>
    <clipPath id="clip-path-27">
      <rect id="Rectángulo_381447" data-name="Rectángulo 381447" width="23.367" height="28.53" fill="none"/>
    </clipPath>
    <clipPath id="clip-path-28">
      <rect id="Rectángulo_381448" data-name="Rectángulo 381448" width="112.425" height="205.266" fill="none"/>
    </clipPath>
    <clipPath id="clip-path-29">
      <rect id="Rectángulo_381449" data-name="Rectángulo 381449" width="15.655" height="3.773" fill="none"/>
    </clipPath>
    <clipPath id="clip-path-30">
      <rect id="Rectángulo_381450" data-name="Rectángulo 381450" width="8.632" height="8.863" fill="none"/>
    </clipPath>
    <clipPath id="clip-path-31">
      <path id="Trazado_843399" data-name="Trazado 843399" d="M221.946,154.243l4.223-4.444-9.937-4.79Z" transform="translate(-216.232 -145.009)" fill="none"/>
    </clipPath>
    <clipPath id="clip-path-33">
      <path id="Trazado_843406" data-name="Trazado 843406" d="M231.223,154.085c-.992,1.147-1.821,4.116-2,5.726-.25,2.237.8,6.729.686,8.977-.074,1.457-.8,4.46-.343,5.829,1.989,5.965,5.511,14.91,7.131,19.953,1.044,3.251,8.058,30.856,10.491,35.793,1.692,3.433,6.863,8.681,8.228,12.069,5.1,12.656,22.846,103.343,22.846,103.343l51.409,2.713s-27.353-84.8-32.153-96.593c-1.567-3.851-1.549-12.461-1.1-16.594a278.39,278.39,0,0,1,5.485-30.034c1.092-4.182,3.874-12.375,5.212-16.485,1.508-4.634.666-6.317-.411-8.063-1.981-3.207-9.607-5.969-12.891-7.817-1.991-1.12-8.869-5.348-8.869-5.348s-14.183,6.314-16.64,10.7c-.4.718-.145,2.481,0,3.291.191,1.064.857,4.235.857,4.235s-7.042,5.558-9.959,5.32c-3.1-.253-5.845-4.943-6.47-6.217-1.157-2.36-2.383-7.522-3.078-10.057a119.5,119.5,0,0,0-4.526-13.439,14.886,14.886,0,0,0-8.546-7.97,8.156,8.156,0,0,0-2.557-.472,3.507,3.507,0,0,0-2.8,1.144" transform="translate(-229.184 -152.941)" fill="none"/>
    </clipPath>
  </defs>
  <g id="Grupo_1083572" data-name="Grupo 1083572" transform="translate(-322 -2781)">
    <rect id="Rectángulo_381391" data-name="Rectángulo 381391" width="363" height="451" transform="translate(322 2781)" fill="#faffd7"/>
    <g id="Grupo_1083543" data-name="Grupo 1083543" transform="translate(347.01 2863.085)">
      <g id="Grupo_1083542" data-name="Grupo 1083542" clip-path="url(#clip-path)">
        <g id="Grupo_1083511" data-name="Grupo 1083511">
          <g id="Grupo_1083510" data-name="Grupo 1083510" clip-path="url(#clip-path)">
            <rect id="Rectángulo_381392" data-name="Rectángulo 381392" width="312.981" height="239.588" rx="7.5" transform="translate(0 0.001)" fill="#92a4b9"/>
            <rect id="Rectángulo_381393" data-name="Rectángulo 381393" width="298.034" height="220.527" transform="translate(7.473 6.566)" fill="#fff"/>
            <g id="Grupo_1083452" data-name="Grupo 1083452" transform="translate(7.473 6.566)" opacity="0.6">
              <g id="Grupo_1083451" data-name="Grupo 1083451">
                <g id="Grupo_1083450" data-name="Grupo 1083450" clip-path="url(#clip-path-3)">
                  <path id="Trazado_843328" data-name="Trazado 843328" d="M307.468,224.6h-.193V8.118H9.241v4.044H303.231V224.6H9.433v4.044H307.468Z" transform="translate(-9.24 -8.118)" fill="#e0e0e0"/>
                </g>
              </g>
            </g>
            <rect id="Rectángulo_381395" data-name="Rectángulo 381395" width="2.696" height="190.332" transform="translate(80.196 18.428)" fill="#e0e0e0"/>
            <path id="Trazado_843329" data-name="Trazado 843329" d="M289.456,37.073H229.682V22.784H226.75V37.073H135.611V22.784h-2.932V37.073h-44.1V22.784H85.644V37.073H47.766V22.784h-2.7V37.073H28.49v2.7H45.07V213.117h2.7V39.769H85.644V213.117h2.932V39.769h44.1V213.117h2.932V39.769H226.75V213.117h2.932V39.769h59.774Z" transform="translate(-5.448 -4.357)" fill="#c2dbf6"/>
            <g id="Grupo_1083455" data-name="Grupo 1083455" transform="translate(187.232 46.016)" opacity="0.7">
              <g id="Grupo_1083454" data-name="Grupo 1083454">
                <g id="Grupo_1083453" data-name="Grupo 1083453" clip-path="url(#clip-path-4)">
                  <path id="Trazado_843330" data-name="Trazado 843330" d="M234.895,63.368l-3.4,24.5,27.359.331L256.544,56.9Z" transform="translate(-231.5 -56.896)" fill="#cccdcc"/>
                </g>
              </g>
            </g>
            <rect id="Rectángulo_381397" data-name="Rectángulo 381397" width="26.716" height="28.34" transform="translate(185.56 46.016)" fill="#de4e96"/>
            <rect id="Rectángulo_381398" data-name="Rectángulo 381398" width="11.458" height="4.044" transform="translate(193.559 44.039)" fill="#cccdcc"/>
            <path id="Trazado_843331" data-name="Trazado 843331" d="M87.891,29.289A1.921,1.921,0,0,1,85.97,31.21h-28.3a1.921,1.921,0,0,1,0-3.842h28.3a1.921,1.921,0,0,1,1.921,1.921" transform="translate(-10.661 -5.233)" fill="#c2dbf6"/>
            <path id="Trazado_843332" data-name="Trazado 843332" d="M141.891,29.289a1.921,1.921,0,0,1-1.921,1.921h-28.3a1.921,1.921,0,0,1,0-3.842h28.3a1.921,1.921,0,0,1,1.921,1.921" transform="translate(-20.987 -5.233)" fill="#c2dbf6"/>
            <path id="Trazado_843333" data-name="Trazado 843333" d="M326.891,29.289a1.92,1.92,0,0,1-1.921,1.921h-28.3a1.921,1.921,0,0,1,0-3.842h28.3a1.92,1.92,0,0,1,1.921,1.921" transform="translate(-56.363 -5.233)" fill="#c2dbf6"/>
            <path id="Trazado_843334" data-name="Trazado 843334" d="M329.122,231.816a2.029,2.029,0,0,1-2.028,2.028H298.6a2.028,2.028,0,0,1,0-4.057h28.5a2.029,2.029,0,0,1,2.028,2.028" transform="translate(-56.711 -43.941)" fill="#bed13a"/>
            <path id="Trazado_843335" data-name="Trazado 843335" d="M329.122,241.816a2.029,2.029,0,0,1-2.028,2.028H298.6a2.028,2.028,0,0,1,0-4.057h28.5a2.029,2.029,0,0,1,2.028,2.028" transform="translate(-56.711 -45.853)" fill="#bed13a"/>
            <path id="Trazado_843336" data-name="Trazado 843336" d="M116.235,58.48l-2.159,15.584L131.538,75.1V57.353Z" transform="translate(-21.814 -10.967)" fill="#cccdcc"/>
            <rect id="Rectángulo_381399" data-name="Rectángulo 381399" width="16.992" height="18.025" transform="translate(94.046 44.039)" fill="#959ce4"/>
            <g id="Grupo_1083458" data-name="Grupo 1083458" transform="translate(137.711 55.061)" opacity="0.7">
              <g id="Grupo_1083457" data-name="Grupo 1083457">
                <g id="Grupo_1083456" data-name="Grupo 1083456" clip-path="url(#clip-path-5)">
                  <rect id="Rectángulo_381400" data-name="Rectángulo 381400" width="33.893" height="41.383" transform="translate(0 -0.001)" fill="#cccdcc"/>
                </g>
              </g>
            </g>
            <path id="Trazado_843337" data-name="Trazado 843337" d="M126.334,78.92l2.6,15.517L145.9,90.2l-5.3-16.933Z" transform="translate(-24.158 -14.011)" fill="#cccdcc"/>
            <rect id="Rectángulo_381402" data-name="Rectángulo 381402" width="16.993" height="18.025" transform="translate(100.779 61.706) rotate(-17.389)" fill="#de4e96"/>
            <g id="Grupo_1083461" data-name="Grupo 1083461" transform="translate(149.215 46.968)" opacity="0.2">
              <g id="Grupo_1083460" data-name="Grupo 1083460">
                <g id="Grupo_1083459" data-name="Grupo 1083459" clip-path="url(#clip-path-6)">
                  <path id="Trazado_843338" data-name="Trazado 843338" d="M194.032,62.969a4.77,4.77,0,1,1-4.769-4.9,4.833,4.833,0,0,1,4.769,4.9" transform="translate(-184.495 -58.073)" fill="#666"/>
                </g>
              </g>
            </g>
            <path id="Trazado_843339" data-name="Trazado 843339" d="M171.645,140.73l-3.4,24.5,27.454,1.624v-27.9Z" transform="translate(-32.173 -26.572)" fill="#cccdcc"/>
            <g id="Grupo_1083464" data-name="Grupo 1083464" transform="translate(185.525 116.441)" opacity="0.7">
              <g id="Grupo_1083463" data-name="Grupo 1083463">
                <g id="Grupo_1083462" data-name="Grupo 1083462" clip-path="url(#clip-path-7)">
                  <path id="Trazado_843340" data-name="Trazado 843340" d="M229.39,151.092l2.184,24.639,27.119-4.573-6.254-27.187Z" transform="translate(-229.39 -143.972)" fill="#cccdcc"/>
                </g>
              </g>
            </g>
            <rect id="Rectángulo_381405" data-name="Rectángulo 381405" width="26.716" height="28.34" transform="translate(183.726 118.372) rotate(-12.956)" fill="#ffbb2e"/>
            <path id="Trazado_843341" data-name="Trazado 843341" d="M204.359,128.854l-13.135,20.96,24.38,12.729,11.429-25.448Z" transform="translate(-36.566 -24.64)" fill="#cccdcc"/>
            <rect id="Rectángulo_381406" data-name="Rectángulo 381406" width="26.716" height="28.34" transform="translate(138.881 108.696)" fill="#959ce4"/>
            <path id="Trazado_843342" data-name="Trazado 843342" d="M302.773,181.084l-1.523,14.959,16.713.382-.615-16.946Z" transform="translate(-57.606 -34.32)" fill="#cccdcc"/>
            <rect id="Rectángulo_381407" data-name="Rectángulo 381407" width="16.24" height="17.226" transform="translate(244.689 143.46) rotate(-2.075)" fill="#959ce4"/>
            <g id="Grupo_1083467" data-name="Grupo 1083467" transform="translate(255.164 158.198)" opacity="0.7">
              <g id="Grupo_1083466" data-name="Grupo 1083466">
                <g id="Grupo_1083465" data-name="Grupo 1083465" clip-path="url(#clip-path-8)">
                  <path id="Trazado_843343" data-name="Trazado 843343" d="M317.016,197.207l-1.523,14.958,16.713.383-.615-16.946Z" transform="translate(-315.493 -195.601)" fill="#eadbea"/>
                </g>
              </g>
            </g>
            <rect id="Rectángulo_381409" data-name="Rectángulo 381409" width="16.24" height="17.227" transform="translate(256.208 156.499) rotate(-2.075)" fill="#45c678"/>
            <g id="Grupo_1083470" data-name="Grupo 1083470" transform="translate(92.18 110.653)" opacity="0.7">
              <g id="Grupo_1083469" data-name="Grupo 1083469">
                <g id="Grupo_1083468" data-name="Grupo 1083468" clip-path="url(#clip-path-9)">
                  <path id="Trazado_843344" data-name="Trazado 843344" d="M123.077,136.815l-9.1,17.3,20.248,7.591,6.685-23.891Z" transform="translate(-113.975 -136.815)" fill="#cccdcc"/>
                </g>
              </g>
            </g>
            <rect id="Rectángulo_381411" data-name="Rectángulo 381411" width="22.398" height="21.115" transform="matrix(0.34, -0.941, 0.941, 0.34, 91.645, 125.547)" fill="#bed13a"/>
            <rect id="Rectángulo_381412" data-name="Rectángulo 381412" width="3.196" height="9.055" transform="translate(104.645 108.165) rotate(-70.144)" fill="#666"/>
            <g id="Grupo_1083473" data-name="Grupo 1083473" transform="translate(142.847 171.6)" opacity="0.7">
              <g id="Grupo_1083472" data-name="Grupo 1083472">
                <g id="Grupo_1083471" data-name="Grupo 1083471" clip-path="url(#clip-path-10)">
                  <path id="Trazado_843345" data-name="Trazado 843345" d="M211.441,238.772l-22.376,11.966-12.443-28.183,22.6-10.382Z" transform="translate(-176.621 -212.172)" fill="#cccdcc"/>
                </g>
              </g>
            </g>
            <rect id="Rectángulo_381414" data-name="Rectángulo 381414" width="24.871" height="30.732" transform="translate(143.612 180.024) rotate(-24.673)" fill="#bed13a"/>
            <rect id="Rectángulo_381415" data-name="Rectángulo 381415" width="11.864" height="3.716" transform="translate(142.48 185.618) rotate(-63.307)" fill="#ffda8e"/>
            <rect id="Rectángulo_381416" data-name="Rectángulo 381416" width="10.775" height="3.716" transform="translate(172.282 200.516) rotate(-63.307)" fill="#ffda8e"/>
            <g id="Grupo_1083476" data-name="Grupo 1083476" transform="translate(177.701 99.738)" opacity="0.7">
              <g id="Grupo_1083475" data-name="Grupo 1083475">
                <g id="Grupo_1083474" data-name="Grupo 1083474" clip-path="url(#clip-path-11)">
                  <path id="Trazado_843346" data-name="Trazado 843346" d="M229.253,128.216a4.77,4.77,0,1,1-4.769-4.9,4.833,4.833,0,0,1,4.769,4.9" transform="translate(-219.716 -123.32)" fill="#cccdcc"/>
                </g>
              </g>
            </g>
            <g id="Grupo_1083479" data-name="Grupo 1083479" transform="translate(91.588 159.526)" opacity="0.7">
              <g id="Grupo_1083478" data-name="Grupo 1083478">
                <g id="Grupo_1083477" data-name="Grupo 1083477" clip-path="url(#clip-path-12)">
                  <path id="Trazado_843347" data-name="Trazado 843347" d="M130.653,207.281l-3.144-10.038-14.266,5.649,2.6,15.517,9.435-2.354-1.791,6.125,17.123,3.573L143.2,208.2Z" transform="translate(-113.243 -197.243)" fill="#cccdcc"/>
                </g>
              </g>
            </g>
            <g id="Grupo_1083482" data-name="Grupo 1083482" transform="translate(90.693 183.767)" opacity="0.7">
              <g id="Grupo_1083481" data-name="Grupo 1083481">
                <g id="Grupo_1083480" data-name="Grupo 1083480" clip-path="url(#clip-path-13)">
                  <path id="Trazado_843348" data-name="Trazado 843348" d="M116.549,227.216l-4.413,15.1,17.123,3.573,2.593-17.553Z" transform="translate(-112.136 -227.216)" fill="#cccdcc"/>
                </g>
              </g>
            </g>
            <path id="Trazado_843349" data-name="Trazado 843349" d="M192.525,83.207a.809.809,0,0,0-1.138.112l-4.624,5.635-4.562-6a.809.809,0,0,0-1.287.979l4.794,6.3-5.018,6.116a.809.809,0,1,0,1.25,1.026l4.774-5.819,4.411,5.8a.809.809,0,0,0,1.287-.979l-4.643-6.1,4.868-5.932a.809.809,0,0,0-.112-1.138" transform="translate(-34.517 -15.803)" fill="#020202"/>
            <g id="Grupo_1083485" data-name="Grupo 1083485" transform="translate(53.026 128.5)" opacity="0.7">
              <g id="Grupo_1083484" data-name="Grupo 1083484">
                <g id="Grupo_1083483" data-name="Grupo 1083483" clip-path="url(#clip-path-14)">
                  <path id="Trazado_843350" data-name="Trazado 843350" d="M72.375,158.882l-6.812,14.182,16.314,6.313,5.415-16.9Z" transform="translate(-65.563 -158.882)" fill="#cccdcc"/>
                </g>
              </g>
            </g>
            <rect id="Rectángulo_381421" data-name="Rectángulo 381421" width="18.025" height="16.992" transform="translate(55.04 142.243) rotate(-72.231)" fill="#66c2f0"/>
            <g id="Grupo_1083488" data-name="Grupo 1083488" transform="translate(55.396 172.539)" opacity="0.7">
              <g id="Grupo_1083487" data-name="Grupo 1083487">
                <g id="Grupo_1083486" data-name="Grupo 1083486" clip-path="url(#clip-path-15)">
                  <path id="Trazado_843351" data-name="Trazado 843351" d="M74.264,214.382a3.341,3.341,0,1,1-4.786-.113,3.386,3.386,0,0,1,4.786.113" transform="translate(-68.494 -213.333)" fill="#cccdcc"/>
                </g>
              </g>
            </g>
            <g id="Grupo_1083491" data-name="Grupo 1083491" transform="translate(237.734 87.065)" opacity="0.7">
              <g id="Grupo_1083490" data-name="Grupo 1083490">
                <g id="Grupo_1083489" data-name="Grupo 1083489" clip-path="url(#clip-path-16)">
                  <rect id="Rectángulo_381423" data-name="Rectángulo 381423" width="38.35" height="31.036" transform="translate(0 34.009) rotate(-62.475)" fill="#cccdcc"/>
                </g>
              </g>
            </g>
            <g id="Grupo_1083494" data-name="Grupo 1083494" transform="translate(262.067 50.433)" opacity="0.7">
              <g id="Grupo_1083493" data-name="Grupo 1083493">
                <g id="Grupo_1083492" data-name="Grupo 1083492" clip-path="url(#clip-path-17)">
                  <path id="Trazado_843352" data-name="Trazado 843352" d="M324.029,68.133,325.8,88.122l22-3.71-5.073-22.055Z" transform="translate(-324.029 -62.357)" fill="#cccdcc"/>
                </g>
              </g>
            </g>
            <rect id="Rectángulo_381426" data-name="Rectángulo 381426" width="21.673" height="22.99" transform="translate(260.607 51.999) rotate(-12.956)" fill="#ffbb2e"/>
            <g id="Grupo_1083497" data-name="Grupo 1083497" transform="translate(228.864 43.571)" opacity="0.7">
              <g id="Grupo_1083496" data-name="Grupo 1083496">
                <g id="Grupo_1083495" data-name="Grupo 1083495" clip-path="url(#clip-path-18)">
                  <path id="Trazado_843353" data-name="Trazado 843353" d="M294.864,53.873,282.976,72.845l22.065,11.52,10.344-23.033Z" transform="translate(-282.975 -53.873)" fill="#cccdcc"/>
                </g>
              </g>
            </g>
            <g id="Grupo_1083500" data-name="Grupo 1083500" transform="translate(268.512 151.618)" opacity="0.2">
              <g id="Grupo_1083499" data-name="Grupo 1083499">
                <g id="Grupo_1083498" data-name="Grupo 1083498" clip-path="url(#clip-path-19)">
                  <path id="Trazado_843354" data-name="Trazado 843354" d="M340.628,191.9a4.317,4.317,0,1,1-4.316-4.431,4.375,4.375,0,0,1,4.316,4.431" transform="translate(-331.997 -187.466)" fill="#666"/>
                </g>
              </g>
            </g>
            <path id="Trazado_843355" data-name="Trazado 843355" d="M340.175,191.554a4.431,4.431,0,1,1-4.431-4.431,4.431,4.431,0,0,1,4.431,4.431" transform="translate(-63.354 -35.782)" fill="#949494"/>
            <path id="Trazado_843356" data-name="Trazado 843356" d="M339.832,191.554a4.431,4.431,0,1,1-4.431-4.431,4.431,4.431,0,0,1,4.431,4.431" transform="translate(-63.289 -35.782)" fill="#cccdcc"/>
            <path id="Trazado_843357" data-name="Trazado 843357" d="M219.945,216.283c-.012,0-.023,0-.036.006s-.023.018-.038.024a.628.628,0,0,0-.066.035.546.546,0,0,0-.054.043.646.646,0,0,0-.1.113c-.006.009-.016.014-.022.023a.286.286,0,0,0-.013.037.456.456,0,0,0-.027.061.48.48,0,0,0-.024.08.439.439,0,0,0-.011.073.622.622,0,0,0,0,.067.338.338,0,0,0,0,.049c0,.011.009.02.011.031a.494.494,0,0,0,.018.068c0,.011,0,.023.006.035l2.379,6.151a.571.571,0,0,0,1.088-.342.586.586,0,0,0-.022-.07l-1.776-4.592,14.415,8.7a.571.571,0,1,0,.59-.979l-14.442-8.712,4.054-.523a.573.573,0,0,0,.494-.641c0-.022-.007-.044-.012-.065a.572.572,0,0,0-.628-.429l-5.68.734a.2.2,0,0,0-.031.011.48.48,0,0,0-.067.017" transform="translate(-41.983 -41.212)" fill="#666"/>
            <path id="Trazado_843358" data-name="Trazado 843358" d="M84.961,69.357c.012,0,.023,0,.036,0s.024-.017.039-.023A.629.629,0,0,0,85.1,69.3a.552.552,0,0,0,.056-.041.644.644,0,0,0,.107-.11c.006-.009.016-.014.022-.023a.355.355,0,0,0,.015-.037.457.457,0,0,0,.028-.061.481.481,0,0,0,.027-.079c.006-.024.01-.048.013-.072a.475.475,0,0,0,0-.068c0-.017.007-.032.006-.049s-.008-.019-.01-.031a.488.488,0,0,0-.016-.068c0-.012,0-.023,0-.035l-2.2-6.218a.572.572,0,0,0-1.1.311.522.522,0,0,0,.019.07l1.642,4.642-14.156-9.11a.572.572,0,0,0-.619.962l14.184,9.127-4.069.406a.571.571,0,0,0-.512.625.554.554,0,0,0,.011.066.571.571,0,0,0,.615.446l5.7-.568c.011,0,.02-.008.032-.01a.669.669,0,0,0,.067-.015" transform="translate(-13.132 -11.134)" fill="#666"/>
            <g id="Grupo_1083506" data-name="Grupo 1083506" transform="translate(14.28 46.061)" opacity="0.7">
              <g id="Grupo_1083505" data-name="Grupo 1083505">
                <g id="Grupo_1083504" data-name="Grupo 1083504" clip-path="url(#clip-path-20)">
                  <path id="Trazado_843359" data-name="Trazado 843359" d="M200.662,183.63a2.029,2.029,0,0,1-2.028,2.028h-28.5a2.028,2.028,0,1,1,0-4.057h28.5a2.029,2.029,0,0,1,2.028,2.028" transform="translate(-46.426 -80.787)" fill="#cccdcc"/>
                  <path id="Trazado_843360" data-name="Trazado 843360" d="M200.662,193.63a2.029,2.029,0,0,1-2.028,2.028h-28.5a2.028,2.028,0,1,1,0-4.057h28.5a2.029,2.029,0,0,1,2.028,2.028" transform="translate(-46.426 -82.699)" fill="#cccdcc"/>
                  <path id="Trazado_843361" data-name="Trazado 843361" d="M85.99,87.031A1.692,1.692,0,0,1,84.3,88.723H60.521a1.692,1.692,0,1,1,0-3.384H84.3a1.692,1.692,0,0,1,1.692,1.692" transform="translate(-25.529 -62.379)" fill="#cccdcc"/>
                  <path id="Trazado_843362" data-name="Trazado 843362" d="M85.99,95.374A1.692,1.692,0,0,1,84.3,97.066H60.521a1.692,1.692,0,1,1,0-3.384H84.3a1.692,1.692,0,0,1,1.692,1.692" transform="translate(-25.529 -63.975)" fill="#cccdcc"/>
                  <path id="Trazado_843363" data-name="Trazado 843363" d="M259.617,104.763a2.029,2.029,0,0,1-2.028,2.028h-28.5a2.028,2.028,0,1,1,0-4.057h28.5a2.029,2.029,0,0,1,2.028,2.028" transform="translate(-57.699 -65.706)" fill="#cccdcc"/>
                  <path id="Trazado_843364" data-name="Trazado 843364" d="M259.617,114.763a2.029,2.029,0,0,1-2.028,2.028h-28.5a2.028,2.028,0,1,1,0-4.057h28.5a2.029,2.029,0,0,1,2.028,2.028" transform="translate(-57.699 -67.618)" fill="#cccdcc"/>
                  <path id="Trazado_843365" data-name="Trazado 843365" d="M139.756,177.208a1.692,1.692,0,0,1-1.692,1.692H114.287a1.692,1.692,0,0,1,0-3.384h23.777a1.692,1.692,0,0,1,1.692,1.692" transform="translate(-35.81 -79.623)" fill="#cccdcc"/>
                  <path id="Trazado_843366" data-name="Trazado 843366" d="M139.756,185.551a1.692,1.692,0,0,1-1.692,1.692H114.287a1.692,1.692,0,0,1,0-3.384h23.777a1.692,1.692,0,0,1,1.692,1.692" transform="translate(-35.81 -81.219)" fill="#cccdcc"/>
                  <path id="Trazado_843367" data-name="Trazado 843367" d="M139.756,108.8a1.692,1.692,0,0,1-1.692,1.692H114.287a1.692,1.692,0,0,1,0-3.384h23.777a1.692,1.692,0,0,1,1.692,1.692" transform="translate(-35.81 -66.541)" fill="#cccdcc"/>
                  <path id="Trazado_843368" data-name="Trazado 843368" d="M139.756,117.14a1.692,1.692,0,0,1-1.692,1.692H114.287a1.692,1.692,0,0,1,0-3.384h23.777a1.692,1.692,0,0,1,1.692,1.692" transform="translate(-35.81 -68.137)" fill="#cccdcc"/>
                  <path id="Trazado_843369" data-name="Trazado 843369" d="M85.99,194.538A1.692,1.692,0,0,1,84.3,196.23H60.521a1.692,1.692,0,1,1,0-3.384H84.3a1.692,1.692,0,0,1,1.692,1.692" transform="translate(-25.529 -82.937)" fill="#cccdcc"/>
                  <path id="Trazado_843370" data-name="Trazado 843370" d="M85.99,202.882a1.692,1.692,0,0,1-1.692,1.692H60.521a1.692,1.692,0,1,1,0-3.384H84.3a1.692,1.692,0,0,1,1.692,1.692" transform="translate(-25.529 -84.533)" fill="#cccdcc"/>
                  <g id="Grupo_1083503" data-name="Grupo 1083503" opacity="0.6">
                    <g id="Grupo_1083502" data-name="Grupo 1083502">
                      <g id="Grupo_1083501" data-name="Grupo 1083501" clip-path="url(#clip-path-21)">
                        <path id="Trazado_843371" data-name="Trazado 843371" d="M35.181,58.043a1.091,1.091,0,0,1-1.092,1.092H18.748a1.092,1.092,0,1,1,0-2.184H34.09a1.091,1.091,0,0,1,1.092,1.092" transform="translate(-17.656 -56.951)" fill="#cccdcc"/>
                        <path id="Trazado_843372" data-name="Trazado 843372" d="M35.181,63.427a1.091,1.091,0,0,1-1.092,1.092H18.748a1.092,1.092,0,0,1,0-2.184H34.09a1.091,1.091,0,0,1,1.092,1.092" transform="translate(-17.656 -57.981)" fill="#cccdcc"/>
                      </g>
                    </g>
                  </g>
                </g>
              </g>
            </g>
            <g id="Grupo_1083509" data-name="Grupo 1083509" transform="translate(7.473 65.25)" opacity="0.7">
              <g id="Grupo_1083508" data-name="Grupo 1083508">
                <g id="Grupo_1083507" data-name="Grupo 1083507" clip-path="url(#clip-path-22)">
                  <path id="Trazado_843373" data-name="Trazado 843373" d="M10.735,80.677,9.322,83.232,9.24,95.693l0,1.534,9.8,4.454,6.373-16.56Z" transform="translate(-9.24 -80.677)" fill="#cccdcc"/>
                </g>
              </g>
            </g>
            <rect id="Rectángulo_381432" data-name="Rectángulo 381432" width="18.025" height="16.993" transform="translate(3.391 78.695) rotate(-68.949)" fill="#45c678"/>
            <path id="Trazado_843374" data-name="Trazado 843374" d="M333.093,265.585h-37.5a5.311,5.311,0,0,0-5.311,5.311H338.4a5.311,5.311,0,0,0-5.311-5.311" transform="translate(-55.509 -50.786)" fill="#323232"/>
            <path id="Trazado_843375" data-name="Trazado 843375" d="M82.659,268.708a3.318,3.318,0,0,1-3.318,3.318H62.37a3.318,3.318,0,1,1,0-6.637H79.34a3.318,3.318,0,0,1,3.318,3.318" transform="translate(-11.292 -50.749)" fill="#020202"/>
            <rect id="Rectángulo_381433" data-name="Rectángulo 381433" width="1.791" height="0.629" transform="translate(99.193 222.419)" fill="#323232"/>
            <path id="Trazado_843376" data-name="Trazado 843376" d="M93.787,267.673H56.067a6.561,6.561,0,0,0-6.561,6.561h59.445c0-3.623-11.541-6.561-15.165-6.561" transform="translate(-9.467 -51.185)" fill="#e470aa"/>
          </g>
        </g>
        <g id="Grupo_1083516" data-name="Grupo 1083516" transform="translate(40.039 216.488)">
          <g id="Grupo_1083515" data-name="Grupo 1083515" clip-path="url(#clip-path-23)">
            <rect id="Rectángulo_381435" data-name="Rectángulo 381435" width="16.849" height="14.962" transform="translate(-9.772 -3.257)" fill="#323232"/>
            <rect id="Rectángulo_381436" data-name="Rectángulo 381436" width="0.809" height="13.21" transform="translate(25.005 -3.931)" fill="#e994bd"/>
            <rect id="Rectángulo_381437" data-name="Rectángulo 381437" width="0.809" height="13.21" transform="translate(26.623 -3.931)" fill="#e994bd"/>
            <g id="Grupo_1083514" data-name="Grupo 1083514" transform="translate(48.189 -1.505)" opacity="0.2">
              <g id="Grupo_1083513" data-name="Grupo 1083513">
                <g id="Grupo_1083512" data-name="Grupo 1083512" clip-path="url(#clip-path-24)">
                  <rect id="Rectángulo_381438" data-name="Rectángulo 381438" width="12.132" height="10.649" transform="translate(0.001)" fill="#fff"/>
                </g>
              </g>
            </g>
          </g>
        </g>
        <g id="Grupo_1083533" data-name="Grupo 1083533">
          <g id="Grupo_1083532" data-name="Grupo 1083532" clip-path="url(#clip-path)">
            <path id="Trazado_843378" data-name="Trazado 843378" d="M336.166,267.812H289.843a6.561,6.561,0,0,0-6.561,6.561h59.445a6.561,6.561,0,0,0-6.561-6.561" transform="translate(-54.17 -51.212)" fill="#ffc856"/>
            <path id="Trazado_843379" data-name="Trazado 843379" d="M247,29.963a2.594,2.594,0,0,1-2.595,2.595H170.845a2.595,2.595,0,1,1,0-5.189h73.563A2.594,2.594,0,0,1,247,29.963" transform="translate(-32.173 -5.233)" fill="#c2dbf6"/>
            <g id="Grupo_1083519" data-name="Grupo 1083519" transform="translate(49.519 175.92)" opacity="0.7">
              <g id="Grupo_1083518" data-name="Grupo 1083518">
                <g id="Grupo_1083517" data-name="Grupo 1083517" clip-path="url(#clip-path-26)">
                  <path id="Trazado_843380" data-name="Trazado 843380" d="M61.228,221.054l5.409,20.372,18.437-5.577-6.752-18.336Z" transform="translate(-61.228 -217.513)" fill="#cccdcc"/>
                </g>
              </g>
            </g>
            <rect id="Rectángulo_381441" data-name="Rectángulo 381441" width="18.712" height="19.849" transform="matrix(0.938, -0.346, 0.346, 0.938, 49.52, 179.46)" fill="#de4e96"/>
            <path id="Trazado_843381" data-name="Trazado 843381" d="M73.831,214.413a3.429,3.429,0,1,1-4.849-.051,3.43,3.43,0,0,1,4.849.051" transform="translate(-12.994 -40.804)" fill="#bf8c23"/>
            <path id="Trazado_843382" data-name="Trazado 843382" d="M73.642,214.6a3.429,3.429,0,1,1-4.849-.051,3.43,3.43,0,0,1,4.849.051" transform="translate(-12.958 -40.839)" fill="#ffbb2e"/>
            <rect id="Rectángulo_381442" data-name="Rectángulo 381442" width="16.992" height="18.025" transform="translate(90.192 161.972) rotate(-17.389)" fill="#66c2f0"/>
            <rect id="Rectángulo_381443" data-name="Rectángulo 381443" width="18.025" height="16.992" transform="matrix(0.146, -0.989, 0.989, 0.146, 103.746, 183.703)" fill="#ffbb2e"/>
            <rect id="Rectángulo_381444" data-name="Rectángulo 381444" width="18.025" height="16.992" transform="translate(92.609 198.108) rotate(-81.598)" fill="#45c678"/>
            <rect id="Rectángulo_381445" data-name="Rectángulo 381445" width="28.339" height="26.716" transform="translate(157.881 124.842) rotate(-65.815)" fill="#e16070"/>
            <path id="Trazado_843383" data-name="Trazado 843383" d="M228.751,127.838a4.9,4.9,0,1,1-4.9-4.9,4.9,4.9,0,0,1,4.9,4.9" transform="translate(-41.87 -23.509)" fill="#949494"/>
            <path id="Trazado_843384" data-name="Trazado 843384" d="M228.373,127.838a4.9,4.9,0,1,1-4.9-4.9,4.9,4.9,0,0,1,4.9,4.9" transform="translate(-41.798 -23.509)" fill="#cccdcc"/>
            <g id="Grupo_1083522" data-name="Grupo 1083522" transform="translate(53.835 90.894)" opacity="0.7">
              <g id="Grupo_1083521" data-name="Grupo 1083521">
                <g id="Grupo_1083520" data-name="Grupo 1083520" clip-path="url(#clip-path-27)">
                  <rect id="Rectángulo_381446" data-name="Rectángulo 381446" width="23.367" height="28.53" transform="translate(0)" fill="#cccdcc"/>
                </g>
              </g>
            </g>
            <g id="Grupo_1083525" data-name="Grupo 1083525" transform="translate(190.353 120.767)" opacity="0.2">
              <g id="Grupo_1083524" data-name="Grupo 1083524">
                <g id="Grupo_1083523" data-name="Grupo 1083523" clip-path="url(#clip-path-28)">
                  <path id="Trazado_843385" data-name="Trazado 843385" d="M262,189.938l-3.428-4.526-2.743-10.149s-3.06-10.211-4.526-13.439a15.493,15.493,0,0,0-.728-1.4,15.856,15.856,0,0,0,1.624.333c1.63.239,3.152,2.65,5.869,3.722,3.177,1.254,5.145.744,6.672,1.459,1.447.678,1.89,2.185,3.5,4.869,2.058,3.428,4.215,4.151,5.306,5.783a11.663,11.663,0,0,1,.726,3.023l0,0a11.33,11.33,0,0,0,.2,2.373c.191,1.064.858,4.235.858,4.235L265.157,192Zm85.781,164.648L318.208,272.24l-5.272.838.044-.838-2.223.233c-3.27-9.707-5.884-17.238-7.063-20.135-1.567-3.851-1.549-12.462-1.1-16.594a278.214,278.214,0,0,1,5.486-30.033c1.092-4.182,3.873-12.376,5.211-16.486,1.508-4.633.666-6.317-.412-8.062-1.98-3.207-9.607-5.969-12.891-7.818-1.361-.766-5.008-2.985-7.177-4.312,0,0-12.162-12.08-15.908-15.5a14.58,14.58,0,0,0-3.931-2.636c-1.739-.537-5.482-.044-7.268-.389-1.038-.2-3.061-1.043-4.068-1.165-1.486-.181-4.924.686-6.419.745-4.115.16-15.98-.745-15.98-.745s-3.5.48-2.325,4.19a2.462,2.462,0,0,0,.691.779c-.075.072-.146.143-.205.213-.992,1.146-1.821,4.116-2,5.726-.25,2.236.8,6.729.686,8.977-.074,1.457-.8,4.46-.343,5.828,1.988,5.966,5.511,14.911,7.131,19.954,1.044,3.25,2.013,8.965,3.634,13.165.185.48,1.649.72,1.646,1.234a50.912,50.912,0,0,0,5.212,21.394c1.692,3.433,6.863,8.681,8.228,12.069,1.691,4.2,5.067,17.675,8.825,33.817l-1.649.172,1.363,3.015-6.51,1.034,14.745,73.672Z" transform="translate(-235.359 -149.32)" fill="#92a4b9"/>
                </g>
              </g>
            </g>
            <g id="Grupo_1083528" data-name="Grupo 1083528" transform="translate(169.812 113.14)" opacity="0.3">
              <g id="Grupo_1083527" data-name="Grupo 1083527">
                <g id="Grupo_1083526" data-name="Grupo 1083526" clip-path="url(#clip-path-29)">
                  <path id="Trazado_843386" data-name="Trazado 843386" d="M212.3,142.355c.066-2.124.223.495.677,1.035s1.978.149,2.5-.041c1.326-.482,1.892-1.263,3.333-1.413a45.414,45.414,0,0,0,5.862-1.22c1.382-.331,1.17-1.072-.2-.745-2.421.579-4.9.611-7.279,1.213a3.915,3.915,0,0,0-1.537.749c-.992.858-.7-.252-.916-1.044-.285-1.034-2.025-.9-2.765-.607a2.709,2.709,0,0,0-2.021,2.7c-.011.378,2.322.067,2.344-.628" transform="translate(-209.961 -139.89)" fill="#020202"/>
                </g>
              </g>
            </g>
            <g id="Grupo_1083531" data-name="Grupo 1083531" transform="translate(249.95 39.847)" opacity="0.2">
              <g id="Grupo_1083530" data-name="Grupo 1083530">
                <g id="Grupo_1083529" data-name="Grupo 1083529" clip-path="url(#clip-path-30)">
                  <path id="Trazado_843387" data-name="Trazado 843387" d="M317.679,53.7a4.317,4.317,0,1,1-4.316-4.431,4.375,4.375,0,0,1,4.316,4.431" transform="translate(-309.047 -49.268)" fill="#666"/>
                </g>
              </g>
            </g>
            <rect id="Rectángulo_381451" data-name="Rectángulo 381451" width="25.65" height="24.18" transform="translate(231.782 62.242) rotate(-65.814)" fill="#66c2f0"/>
            <path id="Trazado_843388" data-name="Trazado 843388" d="M316.888,53.59a4.9,4.9,0,1,1-4.9-4.9,4.9,4.9,0,0,1,4.9,4.9" transform="translate(-58.724 -9.311)" fill="#949494"/>
            <path id="Trazado_843389" data-name="Trazado 843389" d="M316.509,53.59a4.9,4.9,0,1,1-4.9-4.9,4.9,4.9,0,0,1,4.9,4.9" transform="translate(-58.651 -9.311)" fill="#cccdcc"/>
            <rect id="Rectángulo_381452" data-name="Rectángulo 381452" width="23.455" height="28.981" transform="translate(52.163 89.162)" fill="#ffbb2e"/>
            <rect id="Rectángulo_381453" data-name="Rectángulo 381453" width="11.188" height="3.504" transform="translate(48.991 93.51) rotate(-38.629)" fill="#949494"/>
            <rect id="Rectángulo_381454" data-name="Rectángulo 381454" width="11.188" height="3.504" transform="translate(67.862 118.649) rotate(-38.629)" fill="#949494"/>
            <rect id="Rectángulo_381455" data-name="Rectángulo 381455" width="38.35" height="31.036" transform="translate(239.941 120.285) rotate(-62.475)" fill="#bed13a"/>
            <rect id="Rectángulo_381456" data-name="Rectángulo 381456" width="14.804" height="4.638" transform="translate(251.283 89.437) rotate(-11.1)" fill="#de4e96"/>
            <rect id="Rectángulo_381457" data-name="Rectángulo 381457" width="14.805" height="4.638" transform="matrix(0.981, -0.193, 0.193, 0.981, 258.054, 130.479)" fill="#de4e96"/>
            <path id="Trazado_843390" data-name="Trazado 843390" d="M342.35,111.634a10.938,10.938,0,0,0-10.7,8.716l-1.588-2.214a.808.808,0,1,0-1.313.942l2.829,3.947s.01.006.013.011,0,.014.01.02.023.015.033.026a.8.8,0,0,0,.182.146c.023.015.04.038.065.05l.024.01a.793.793,0,0,0,.331.074h0a.814.814,0,0,0,.251-.041l.038-.017a.777.777,0,0,0,.081-.043.969.969,0,0,0,.1-.05s.007-.01.011-.013a.148.148,0,0,0,.019-.011l3.868-3.062a.809.809,0,0,0-1-1.268l-2.377,1.881a9.3,9.3,0,1,1,9.121,11.117.809.809,0,0,0,0,1.618,10.92,10.92,0,0,0,0-21.839" transform="translate(-62.836 -21.347)" fill="#666"/>
            <rect id="Rectángulo_381458" data-name="Rectángulo 381458" width="33.893" height="41.383" transform="translate(136.077 52.531)" fill="#ffbb2e"/>
            <path id="Trazado_843391" data-name="Trazado 843391" d="M193.531,62.591a4.9,4.9,0,1,1-4.9-4.9,4.9,4.9,0,0,1,4.9,4.9" transform="translate(-35.135 -11.033)" fill="#949494"/>
            <path id="Trazado_843392" data-name="Trazado 843392" d="M193.152,62.591a4.9,4.9,0,1,1-4.9-4.9,4.9,4.9,0,0,1,4.9,4.9" transform="translate(-35.063 -11.033)" fill="#cccdcc"/>
            <path id="Trazado_843393" data-name="Trazado 843393" d="M231.249,168.918l-6.583,4.937s-.64,6.674,7.177,7.68c7.769,1,22.571-9.181,30.307-7.954,2.068.328,4.373,5.644,6.446,5.348,2.02-.288,3.428-7.405,3.428-7.405l-23.686-15.1Z" transform="translate(-42.959 -29.912)" fill="#f7b081"/>
            <path id="Trazado_843394" data-name="Trazado 843394" d="M231.426,185.332l-3.931,3.657s.612,7.131,8.137,5.851c7.054-1.2,25.691-12.616,25.691-12.616h4.3l5.852,3.291-3.2-9.874-15.725-3.656Z" transform="translate(-43.502 -32.887)" fill="#ffcaa2"/>
            <path id="Trazado_843395" data-name="Trazado 843395" d="M234.72,196.162s-1.075,1.5-.995,2.3c.16,1.608,1.909,4.28,4.652,5.377,5.454,2.182,23.405-2.1,23.405-2.1l13.622-9.692-5.486-7.314-7.953-2.011Z" transform="translate(-44.693 -34.941)" fill="#f7b081"/>
            <path id="Trazado_843396" data-name="Trazado 843396" d="M223.3,155.376l81.531,70.386,4.37-5.423-81.678-69.408Z" transform="translate(-42.699 -28.862)" fill="#5273bf"/>
            <path id="Trazado_843397" data-name="Trazado 843397" d="M221.946,154.243l-5.714-9.234,9.937,4.79Z" transform="translate(-41.348 -27.729)" fill="#dfa58a"/>
          </g>
        </g>
        <g id="Grupo_1083535" data-name="Grupo 1083535" transform="translate(174.884 117.28)">
          <g id="Grupo_1083534" data-name="Grupo 1083534" clip-path="url(#clip-path-31)">
            <path id="Trazado_843398" data-name="Trazado 843398" d="M214.734,144.25l1.946,2.629,1.795-1.677-3.766-1.053" transform="translate(-215.941 -144.845)" fill="#020202"/>
          </g>
        </g>
        <g id="Grupo_1083537" data-name="Grupo 1083537">
          <g id="Grupo_1083536" data-name="Grupo 1083536" clip-path="url(#clip-path)">
            <path id="Trazado_843400" data-name="Trazado 843400" d="M327.885,240.606c-1.127,1.563-2.814,2.273-3.766,1.586s-.81-2.51.318-4.074,2.814-2.273,3.766-1.586.81,2.511-.318,4.074" transform="translate(-61.858 -45.18)" fill="#5c85b5"/>
            <path id="Trazado_843401" data-name="Trazado 843401" d="M327.32,240.341c-.545.755-1.36,1.1-1.821.767s-.391-1.214.154-1.969,1.36-1.1,1.821-.767.391,1.214-.154,1.969" transform="translate(-62.185 -45.558)" fill="#020202"/>
            <path id="Trazado_843402" data-name="Trazado 843402" d="M232.276,153.337s-1.1-.794-1.228-1.2c-1.172-3.711,2.325-4.191,2.325-4.191s11.865.906,15.98.745c1.5-.058,4.934-.926,6.419-.745,1.007.123,3.03.966,4.068,1.166,1.787.345,5.53-.148,7.268.388a14.6,14.6,0,0,1,3.931,2.637c3.746,3.415,15.908,15.5,15.908,15.5L268.41,178.211a11.667,11.667,0,0,0-.726-3.024c-1.092-1.63-3.249-2.354-5.306-5.783-1.609-2.684-2.053-4.191-3.5-4.868-1.527-.715-3.494-.206-6.672-1.46-2.717-1.072-4.24-3.483-5.869-3.721-5.623-.823-14.061-6.019-14.061-6.019" transform="translate(-44.136 -28.285)" fill="#ffb781"/>
            <path id="Trazado_843403" data-name="Trazado 843403" d="M231.705,153.9s3.871-5.653,12.262,2.361c3.538,3.378,5.348,10.971,5.348,10.971s3.066,13.691,5.28,17.76a12.826,12.826,0,0,0,5.074,4.594c3.25,1.114,13.7-1.039,13.7-1.039l-2.39,1.039-14.6,4.388s-5.555-6.377-5.623-6.583-4.113-15.566-4.113-15.771-14.937-17.72-14.937-17.72" transform="translate(-44.307 -29.059)" fill="#f6a570"/>
            <path id="Trazado_843404" data-name="Trazado 843404" d="M236.584,153.413c-3.226-1.076-4.714-.076-5.361.672-.992,1.147-1.821,4.116-2,5.726-.25,2.237.8,6.729.685,8.977-.074,1.457-.8,4.46-.342,5.828,1.988,5.966,5.511,14.911,7.131,19.954,1.044,3.25,8.058,30.856,10.491,35.793,1.692,3.433,6.863,8.681,8.228,12.069,5.1,12.656,22.845,103.343,22.845,103.343l51.41,2.713s-27.354-84.8-32.153-96.593c-1.567-3.851-1.549-12.462-1.1-16.594a278.212,278.212,0,0,1,5.486-30.033c1.092-4.182,3.873-12.376,5.211-16.485,1.508-4.634.666-6.318-.412-8.063-1.98-3.207-9.606-5.969-12.891-7.817-1.99-1.12-8.868-5.348-8.868-5.348s-14.183,6.313-16.64,10.7c-.4.717-.145,2.481,0,3.291.191,1.064.858,4.235.858,4.235s-7.043,5.557-9.96,5.32c-3.1-.253-5.845-4.943-6.47-6.218-1.158-2.359-2.383-7.521-3.078-10.056a119.675,119.675,0,0,0-4.526-13.44,14.889,14.889,0,0,0-8.546-7.97" transform="translate(-43.825 -29.246)" fill="#ffb781"/>
          </g>
        </g>
        <g id="Grupo_1083539" data-name="Grupo 1083539" transform="translate(185.359 123.695)">
          <g id="Grupo_1083538" data-name="Grupo 1083538" clip-path="url(#clip-path-33)">
            <path id="Trazado_843405" data-name="Trazado 843405" d="M270.49,304.524,314.7,299.9l-.236,4.423L273.827,311.9Z" transform="translate(-237.083 -181.043)" fill="#f6a570"/>
          </g>
        </g>
        <g id="Grupo_1083541" data-name="Grupo 1083541">
          <g id="Grupo_1083540" data-name="Grupo 1083540" clip-path="url(#clip-path)">
            <path id="Trazado_843407" data-name="Trazado 843407" d="M230.282,170.281s6.3-4.675,7.878-6.267a4.167,4.167,0,0,0,.854-2.235c-.061-2.394.008-7.868-5.074-7.405a4.576,4.576,0,0,0-3.7,2.286,10.313,10.313,0,0,0-1.051,4.251c-.007,2.359,1.1,9.371,1.1,9.371" transform="translate(-43.825 -29.514)" fill="#ffddc4"/>
            <path id="Trazado_843408" data-name="Trazado 843408" d="M264.126,308.573l17.481,74.807h68.342L318.715,299.9Z" transform="translate(-50.507 -57.348)" fill="#4d7aae"/>
            <path id="Trazado_843409" data-name="Trazado 843409" d="M264.126,308.573l3.267,13.859L323.3,312.192,318.715,299.9Z" transform="translate(-50.507 -57.348)" fill="#fff"/>
          </g>
        </g>
      </g>
    </g>
  </g>
</svg>
