<svg id="Grupo_1083558" data-name="Grupo 1083558" xmlns="http://www.w3.org/2000/svg" xmlns:xlink="http://www.w3.org/1999/xlink" width="108.984" height="108.897" viewBox="0 0 108.984 108.897">
  <defs>
    <clipPath id="clip-path">
      <rect id="Rectángulo_381473" data-name="Rectángulo 381473" width="108.984" height="108.897" fill="#0a5e6b"/>
    </clipPath>
  </defs>
  <g id="Grupo_1083556" data-name="Grupo 1083556" transform="translate(0 0)" clip-path="url(#clip-path)">
    <path id="Trazado_843449" data-name="Trazado 843449" d="M54.73,52.736c.556-1.5,1.108-3,1.669-4.5,1.255-3.354,3.5-4.891,7.067-4.988,3.668-.1,7.357.364,11-.289a7,7,0,0,0,6.2-7.375q.068-12.19,0-24.384c-.032-4.6-3.006-7.491-7.637-7.535-4.241-.04-8.481-.009-12.722-.013-.565,0-1.134.016-1.695-.034-1.163-.1-2.127-.553-2.112-1.891C56.519.334,57.529.013,58.7.012Q63.684,0,68.667,0c1.626,0,3.252.011,4.877,0a9.828,9.828,0,0,1,7.581,3.2,4.729,4.729,0,0,0,3.924,1.574c4.38-.066,8.764-.048,13.146-.016,6.766.052,10.687,3.979,10.7,10.669,0,2.051,0,4.1,0,6.15,0,1.237-.26,2.386-1.774,2.35-1.436-.034-1.828-1.153-1.847-2.385-.034-2.191,0-4.383-.03-6.573-.058-4.039-2.245-6.262-6.318-6.315-4.17-.056-8.34.012-12.511-.032-1.48-.017-2,.317-1.969,2.052.145,8.826.617,17.678-.251,26.47-.26,2.629-1.025,4.6,2.228,5.764,1.455.521,1.9,2.357,2.413,3.845.267.782.6,1.543,1.015,2.611.381-.9.648-1.463.867-2.047,1.86-4.96,3.142-5.891,8.394-6.076,3.853-.136,6.072-2.422,6.134-6.337.021-1.343,0-2.687.016-4.029a6.313,6.313,0,0,1,.142-1.469,1.688,1.688,0,0,1,1.8-1.465,1.579,1.579,0,0,1,1.632,1.624c.052,2.68.391,5.4-.176,8.032-.965,4.494-4.768,7.4-10.031,7.475-2.5.034-3.8,1.02-4.415,3.315a29.4,29.4,0,0,1-1.235,3.382,3.227,3.227,0,0,1-6.193.062c-.429-1.044-.8-2.114-1.182-3.178-1.219-3.4-2.932-4.677-6.287-3.282-4.547,1.891-9.148,1.435-13.773,1.511-4.586.075-4.794.172-6.386,4.551-.507,1.393-1,2.8-1.6,4.148a3.176,3.176,0,0,1-3.217,1.975,3.115,3.115,0,0,1-2.993-1.99c-.772-1.818-1.491-3.666-2.1-5.544a4.145,4.145,0,0,0-4.626-3.148c-2.751.107-5.511.013-8.268.025a11.374,11.374,0,0,1-5.344-1.117,8.906,8.906,0,0,0-4.769-.581,2.6,2.6,0,0,0-2.327,1.887c-.417,1.049-.768,2.126-1.168,3.182-.678,1.79-1.212,3.8-3.647,3.834-2.563.031-3.089-2.073-3.788-3.928a20.421,20.421,0,0,1-.7-2A3.687,3.687,0,0,0,10.473,45.1,9.989,9.989,0,0,1,1.8,41.038,9.335,9.335,0,0,1,0,35.281c.032-6.715,0-13.429.013-20.144C.026,8.958,3.952,4.9,10.163,4.783c4.592-.091,9.188-.062,13.782,0A4.558,4.558,0,0,0,27.69,3.293,10.161,10.161,0,0,1,35.455,0c4.734.021,9.47,0,14.206.007,1.307,0,2.789-.031,2.72,1.808-.063,1.722-1.5,1.822-2.818,1.826-4.382.015-8.763,0-13.146.013-5.415.023-8.181,2.8-8.2,8.272q-.032,11.45,0,22.9c.013,5.356,2.771,8.21,8.2,8.4,2.966.1,5.937.012,8.905.034,3.716.027,5.883,1.558,7.218,5.071.549,1.445,1.079,2.9,1.617,4.347l.573.06M18.769,49.715c1.5-2.746,1.437-5.761,3.664-6.709,3.375-1.439,2.452-3.511,2.226-6.177-.739-8.731-.34-17.506-.207-26.264.017-1.2-.035-1.93-1.439-1.919-4.734.034-9.472-.054-14.2.1a5.3,5.3,0,0,0-5.093,5.286q-.145,10.916,0,21.837c.031,2.607,2.229,5.274,4.706,5.2,5.758-.169,9.4,2.064,10.345,8.644" transform="translate(0 0)" fill="#0a5e6b"/>
    <path id="Trazado_843450" data-name="Trazado 843450" d="M81.579,89.573c-3.179,0-6.36.027-9.54-.012a2.413,2.413,0,0,0-2.555,1.394,4.5,4.5,0,0,1-4.341,2.5q-13.251-.022-26.5,0a4.485,4.485,0,0,1-4.372-2.44,2.559,2.559,0,0,0-2.736-1.457q-9.115.044-18.232.008c-4.077-.011-5.658-1.589-5.677-5.631-.012-2.755-.051-5.513.013-8.268a10.361,10.361,0,0,1,6.036-9.709c1.565-.764,1.63-1.286.832-2.746a9.853,9.853,0,1,1,17.862-8.2,9.3,9.3,0,0,1-.764,8.55c-.672,1.082-.73,1.7.637,2.178a7.132,7.132,0,0,1,3.1,2.165c.872,1.043,1.524.871,2.4-.005a9.591,9.591,0,0,1,4.133-2.507c1.589-.452,1.4-.945.574-2.119a11.494,11.494,0,1,1,19.3-12.447,10.921,10.921,0,0,1-.573,12.557c-.809,1.154-.851,1.647.592,1.963a8.286,8.286,0,0,1,1.355.592c1.524.64,2.56,2.495,3.984,2.613,1.464.121,2.32-2.116,3.906-2.6,1.879-.566,1.618-1.431.839-2.895a9.852,9.852,0,0,1,9.825-14.367,9.807,9.807,0,0,1,7.457,14.641c-.794,1.455-.594,1.884.833,2.583a10.469,10.469,0,0,1,6.106,9.889c.047,2.826.032,5.654,0,8.48-.035,3.6-1.71,5.246-5.387,5.279-3.038.028-6.076.005-9.116.008M51.854,89.8q3.072,0,6.142,0c2.048,0,4.1-.046,6.144.008,1.7.046,2.441-.692,2.412-2.4-.054-3.176.066-6.357-.04-9.531-.2-6.066-3.778-9.516-9.784-9.549-3.531-.019-7.061-.043-10.591.017a8.491,8.491,0,0,0-8.613,7.232c-.76,4.128-.252,8.31-.311,12.466-.021,1.518,1.107,1.765,2.358,1.762q6.142-.018,12.284,0M81.2,85.92c3.032,0,6.066-.035,9.1.015,1.52.025,2.179-.574,2.143-2.13-.066-2.748.05-5.5-.043-8.25a7.171,7.171,0,0,0-7-7.107c-3.24-.113-6.488-.082-9.731.005a6.917,6.917,0,0,0-5.193,2.484c-.55.639-1.192,1.384-.942,2.264,1.024,3.609.568,7.291.631,10.942.024,1.414.627,1.821,1.938,1.8,3.033-.055,6.066-.017,9.1-.02m-58.685,0q4.125,0,8.25,0c2.744-.005,2.705-.009,2.766-2.849.06-2.881-.416-5.817.413-8.629.561-1.9-.211-3.132-1.487-4.257a7.012,7.012,0,0,0-4.654-1.755c-3.1-.042-6.207-.081-9.307,0a7.2,7.2,0,0,0-7.193,7.134c-.089,2.747.025,5.5-.04,8.249-.038,1.566.647,2.139,2.155,2.115,3.032-.05,6.064-.015,9.1-.011M51.908,64.41a7.759,7.759,0,0,0,7.834-7.785,7.887,7.887,0,0,0-15.774.106,7.748,7.748,0,0,0,7.939,7.679M29.279,58.461A6.1,6.1,0,0,0,23.09,52.3,6.217,6.217,0,1,0,23.2,64.734a6.1,6.1,0,0,0,6.076-6.274m45.151-.021a6.1,6.1,0,0,0,6.054,6.3A6.217,6.217,0,1,0,80.642,52.3a6.1,6.1,0,0,0-6.212,6.138" transform="translate(2.599 15.441)" fill="#0a5e6b"/>
    <path id="Trazado_843451" data-name="Trazado 843451" d="M42.021,14.545a5.545,5.545,0,0,1,5.595,5.414A5.609,5.609,0,1,1,36.4,19.932a5.547,5.547,0,0,1,5.622-5.387" transform="translate(12.447 4.974)" fill="#0a5e6b"/>
    <path id="Trazado_843452" data-name="Trazado 843452" d="M52.7,14.545a5.572,5.572,0,0,1,5.644,5.38,5.821,5.821,0,0,1-5.616,5.738,5.634,5.634,0,0,1-5.6-5.475A5.519,5.519,0,0,1,52.7,14.545" transform="translate(16.117 4.974)" fill="#0a5e6b"/>
    <path id="Trazado_843453" data-name="Trazado 843453" d="M31.359,14.545a5.519,5.519,0,0,1,5.522,5.685,5.706,5.706,0,0,1-5.658,5.434,5.836,5.836,0,0,1-5.557-5.58,5.577,5.577,0,0,1,5.693-5.538" transform="translate(8.777 4.974)" fill="#0a5e6b"/>
  </g>
</svg>
