<svg xmlns="http://www.w3.org/2000/svg" xmlns:xlink="http://www.w3.org/1999/xlink" width="141" height="141" viewBox="0 0 141 141">
  <defs>
    <clipPath id="clip-path">
      <rect id="Rectángulo_381385" data-name="Rectángulo 381385" width="93.264" height="93.326" fill="#fff"/>
    </clipPath>
  </defs>
  <g id="Grupo_1083569" data-name="Grupo 1083569" transform="translate(-317 -1053)">
    <g id="Grupo_1071995" data-name="Grupo 1071995" transform="translate(48 95)">
      <path id="Trazado_609142" data-name="Trazado 609142" d="M70.5,0A70.5,70.5,0,1,1,0,70.5,70.5,70.5,0,0,1,70.5,0Z" transform="translate(269 958)" fill="#0a5e6b"/>
    </g>
    <g id="Grupo_1083442" data-name="Grupo 1083442" transform="translate(340.868 1076.837)">
      <g id="Grupo_1083441" data-name="Grupo 1083441" clip-path="url(#clip-path)">
        <path id="Trazado_843307" data-name="Trazado 843307" d="M.022,46.786C-.381,23.881,17.094,3.355,40.4.414a45.5,45.5,0,0,1,28.7,5.4c1.341.754,2.135.6,3.074-.5A25.827,25.827,0,0,1,75.131,2.39c1.98-1.669,4.51-.809,4.938,1.735a57.438,57.438,0,0,1,.668,6.661c.062,1.262.563,1.633,1.76,1.693a57.633,57.633,0,0,1,6.3.614c2.918.47,3.772,2.935,1.842,5.173a23.579,23.579,0,0,1-2.8,2.833c-1.177.97-1.119,1.812-.4,3.088a44.2,44.2,0,0,1,5.593,26.553C91.455,66.745,83.653,79.134,69.7,87.1A46.508,46.508,0,0,1,2.931,63.109,41.442,41.442,0,0,1,.022,46.786m73.3-16.306a30.978,30.978,0,0,1,4.5,14.851,30.471,30.471,0,0,1-3.392,15.4A31.21,31.21,0,0,1,18.4,33.22,30.648,30.648,0,0,1,37.652,16.733c8.837-2.712,17.237-1.32,25.512,3.32-.614-3.129-.633-5.662,1.826-7.648,1.467-1.184,1.333-1.547-.4-2.369A40.78,40.78,0,0,0,6.429,53.579,40.5,40.5,0,0,0,46.791,87.4c12.568-.034,23.022-5.169,31.245-14.8C88.076,60.84,90.271,42.151,83.15,28.487c-.741-1.422-1.418-1.506-2.333-.312a5.848,5.848,0,0,1-6.128,2.153c-.39-.066-.813-.3-1.371.152m-26.6-9.168c-16.387-.016-28.672,15.207-24.794,31,2.5,10.185,9.075,16.769,19.29,19.021C51.381,73.569,60,70.264,66.545,62.183a25.151,25.151,0,0,0,1.01-29.789c-.791-1.138-1.331-1.324-2.324-.25-1.6,1.729-3.263,3.407-5,5a1.957,1.957,0,0,0-.4,2.812,13.361,13.361,0,0,1,1.383,9.475c-1.3,5.794-4.752,9.749-10.432,11.465-5.881,1.777-11.056.18-15.163-4.285a13.948,13.948,0,0,1-3.037-14.99,14.728,14.728,0,0,1,20.64-8.249,2.079,2.079,0,0,0,2.951-.47c1.5-1.656,3.09-3.237,4.739-4.745,1.134-1.037,1.188-1.667-.191-2.569a25.148,25.148,0,0,0-14-4.27M45.67,55.607c6.794-.01,11.1-5.489,9.665-11.11-.448-1.759-.58-1.808-1.837-.577-1.378,1.351-2.727,2.734-4.1,4.089-1.825,1.8-3.564,2.022-4.895.645-1.29-1.335-1.073-3.02.641-4.766,1.4-1.421,2.774-2.86,4.231-4.215,1.174-1.092.762-1.495-.56-1.773a8.75,8.75,0,0,0-9.125,2.965,8.515,8.515,0,0,0-1.272,9.5,8.325,8.325,0,0,0,7.254,5.244m28.77-44.368c-1.5,1.557-2.742,3.048-4.191,4.3A4.087,4.087,0,0,0,68.9,19.583c.567,4.228.544,4.25,4.826,4.722.936.1,2,.417,2.79-.319,1.789-1.678,3.5-3.443,5.317-5.251-1.879-1.124-4.1-.069-5.657-1.505-1.68-1.547-.586-3.858-1.738-5.991" transform="translate(0 0)" fill="#fff"/>
      </g>
    </g>
  </g>
</svg>
